<?xml version="1.0" standalone="no"?>
<svg viewBox="0 0 200 200" xmlns="http://www.w3.org/2000/svg">
  <path fill="#000000" d="M25,-50.9C31.6,-39.5,35.5,-31.1,41.5,-23.2C47.5,-15.2,55.5,-7.6,59.9,2.5C64.2,12.6,64.8,25.2,60.9,36.8C57,48.4,48.6,59.1,37.7,59.2C26.8,59.3,13.4,48.9,3.2,43.3C-7,37.8,-14,37.1,-25.5,37.3C-37,37.5,-53,38.7,-62.1,32.6C-71.2,26.5,-73.6,13.3,-69,2.6C-64.5,-8,-53.1,-16.1,-45.4,-24.7C-37.7,-33.2,-33.7,-42.4,-26.8,-53.5C-19.8,-64.6,-9.9,-77.7,-0.3,-77.1C9.2,-76.5,18.4,-62.2,25,-50.9Z" transform="translate(100 100)" />
</svg>
