<?xml version="1.0" standalone="no"?><svg xmlns="http://www.w3.org/2000/svg" viewBox="0 0 1440 320"><path fill="#273036" fill-opacity="1" d="M0,224L17.1,240C34.3,256,69,288,103,293.3C137.1,299,171,277,206,261.3C240,245,274,235,309,229.3C342.9,224,377,224,411,229.3C445.7,235,480,245,514,250.7C548.6,256,583,256,617,213.3C651.4,171,686,85,720,96C754.3,107,789,213,823,240C857.1,267,891,213,926,192C960,171,994,181,1029,197.3C1062.9,213,1097,235,1131,256C1165.7,277,1200,299,1234,298.7C1268.6,299,1303,277,1337,250.7C1371.4,224,1406,192,1423,176L1440,160L1440,320L1422.9,320C1405.7,320,1371,320,1337,320C1302.9,320,1269,320,1234,320C1200,320,1166,320,1131,320C1097.1,320,1063,320,1029,320C994.3,320,960,320,926,320C891.4,320,857,320,823,320C788.6,320,754,320,720,320C685.7,320,651,320,617,320C582.9,320,549,320,514,320C480,320,446,320,411,320C377.1,320,343,320,309,320C274.3,320,240,320,206,320C171.4,320,137,320,103,320C68.6,320,34,320,17,320L0,320Z"></path></svg>